<svg xmlns="http://www.w3.org/2000/svg" viewBox="0 0 64 64" role="img" aria-label="XO">
  <rect width="64" height="64" rx="8" fill="#f4f2ed"/>
  <g fill="none" stroke="#080808" stroke-linecap="round" stroke-linejoin="round">
    <path d="M9 14C15 22 22 35 29 51" stroke-width="7.5"/>
    <path d="M29 13C22 23 15 36 8 51" stroke-width="7"/>
    <path d="M44 13C53 11 58 19 56 31C54 44 48 53 40 52C32 51 31 42 34 30C36 21 39 15 44 13Z" stroke-width="6.5"/>
  </g>
  <path d="M31 8C31 4.5 35.7 3.7 38 7C40.3 3.7 45 4.5 45 8C45 11.1 41.2 13.5 38 16C34.8 13.5 31 11.1 31 8Z" fill="#080808"/>
</svg>
